<svg id="visual" viewBox="0 0 900 600" width="900" height="600" xmlns="http://www.w3.org/2000/svg" xmlns:xlink="http://www.w3.org/1999/xlink" version="1.1"><rect x="0" y="0" width="900" height="600" fill="#000000"></rect><path d="M0 415L129 416L257 360L386 443L514 372L643 406L771 416L900 361L900 601L771 601L643 601L514 601L386 601L257 601L129 601L0 601Z" fill="#eaafbd"></path><path d="M0 398L129 431L257 397L386 440L514 394L643 477L771 422L900 416L900 601L771 601L643 601L514 601L386 601L257 601L129 601L0 601Z" fill="#dea1b0"></path><path d="M0 440L129 446L257 468L386 483L514 456L643 466L771 473L900 461L900 601L771 601L643 601L514 601L386 601L257 601L129 601L0 601Z" fill="#d293a3"></path><path d="M0 495L129 534L257 514L386 533L514 532L643 515L771 511L900 510L900 601L771 601L643 601L514 601L386 601L257 601L129 601L0 601Z" fill="#c68596"></path><path d="M0 535L129 549L257 544L386 572L514 533L643 546L771 543L900 525L900 601L771 601L643 601L514 601L386 601L257 601L129 601L0 601Z" fill="#ba7889"></path></svg>