<svg id="visual" viewBox="0 0 900 600" width="900" height="600" xmlns="http://www.w3.org/2000/svg" xmlns:xlink="http://www.w3.org/1999/xlink" version="1.1"><rect x="0" y="0" width="900" height="600" fill="#d7c291"></rect><path d="M0 429L129 360L257 443L386 414L514 425L643 393L771 444L900 354L900 601L771 601L643 601L514 601L386 601L257 601L129 601L0 601Z" fill="#e29352"></path><path d="M0 464L129 400L257 415L386 425L514 406L643 480L771 433L900 469L900 601L771 601L643 601L514 601L386 601L257 601L129 601L0 601Z" fill="#ec9a47"></path><path d="M0 498L129 481L257 448L386 451L514 446L643 504L771 508L900 481L900 601L771 601L643 601L514 601L386 601L257 601L129 601L0 601Z" fill="#f4a239"></path><path d="M0 541L129 512L257 511L386 537L514 513L643 515L771 502L900 538L900 601L771 601L643 601L514 601L386 601L257 601L129 601L0 601Z" fill="#faab27"></path><path d="M0 554L129 547L257 542L386 546L514 547L643 532L771 540L900 526L900 601L771 601L643 601L514 601L386 601L257 601L129 601L0 601Z" fill="#ffb400"></path></svg>